<svg xmlns="http://www.w3.org/2000/svg" xmlns:xlink="http://www.w3.org/1999/xlink" width="856" zoomAndPan="magnify" viewBox="0 0 642 641.999998" height="856" preserveAspectRatio="xMidYMid meet" version="1.0"><defs><clipPath id="ceb79d126b"><path d="M 60.503906 108 L 581.753906 108 L 581.753906 535.917969 L 60.503906 535.917969 Z M 60.503906 108 " clip-rule="nonzero"/></clipPath></defs><g clip-path="url(#ceb79d126b)"><path fill="#095aba" d="M 213.203125 530.050781 L 295.222656 448.058594 C 299.417969 443.859375 306.25 443.867188 310.441406 448.058594 L 382.710938 520.308594 C 390.496094 528.089844 403.167969 528.089844 410.953125 520.308594 L 436.074219 495.191406 C 439.847656 491.421875 441.925781 486.402344 441.925781 481.070312 C 441.925781 475.734375 439.847656 470.722656 436.074219 466.949219 L 316.953125 347.863281 C 309.167969 340.082031 296.496094 340.082031 288.710938 347.863281 L 159.835938 476.699219 C 152.050781 484.488281 152.050781 497.152344 159.835938 504.941406 L 184.953125 530.050781 C 188.847656 533.949219 193.964844 535.894531 199.078125 535.894531 C 204.195312 535.894531 209.308594 533.949219 213.203125 530.050781 Z M 550.78125 474.210938 L 575.90625 449.09375 C 579.675781 445.324219 581.753906 440.308594 581.753906 434.976562 C 581.753906 429.644531 579.675781 424.625 575.90625 420.851562 L 409.925781 254.921875 C 402.136719 247.136719 389.46875 247.136719 381.675781 254.921875 L 356.554688 280.039062 C 348.769531 287.820312 348.769531 300.492188 356.554688 308.273438 L 522.539062 474.210938 C 526.429688 478.101562 531.542969 480.046875 536.660156 480.046875 C 541.773438 480.046875 546.890625 478.101562 550.78125 474.210938 Z M 105.601562 442.449219 C 100.265625 442.449219 95.25 440.375 91.476562 436.601562 L 66.359375 411.488281 C 62.585938 407.714844 60.507812 402.703125 60.507812 397.371094 C 60.507812 392.035156 62.585938 387.023438 66.359375 383.25 L 335.707031 113.976562 C 343.492188 106.1875 356.167969 106.1875 363.957031 113.976562 L 389.070312 139.089844 C 396.863281 146.871094 396.863281 159.542969 389.070312 167.324219 L 119.726562 436.601562 C 115.953125 440.375 110.9375 442.449219 105.601562 442.449219 " fill-opacity="1" fill-rule="nonzero"/></g></svg>