<svg xmlns="http://www.w3.org/2000/svg" viewBox="0 0 428 389.11" width="20" height="20">
    <circle cx="214.15" cy="181" r="171" fill="none" stroke="currentColor" stroke-miterlimit="10" stroke-width="20"/><path fill="#095aba" d="M 54.929688 168.824219 L 84.429688 139.347656 C 85.941406 137.839844 88.398438 137.839844 89.90625 139.347656 L 115.902344 165.320312 C 118.703125 168.121094 123.261719 168.121094 126.0625 165.320312 L 135.097656 156.292969 C 136.457031 154.9375 137.203125 153.132812 137.203125 151.214844 C 137.203125 149.296875 136.457031 147.496094 135.097656 146.140625 L 92.25 103.328125 C 89.449219 100.527344 84.890625 100.527344 82.089844 103.328125 L 35.730469 149.644531 C 32.929688 152.445312 32.929688 157 35.730469 159.796875 L 44.765625 168.824219 C 46.167969 170.226562 48.007812 170.925781 49.847656 170.925781 C 51.6875 170.925781 53.527344 170.226562 54.929688 168.824219 Z M 176.359375 148.75 L 185.394531 139.71875 C 186.753906 138.363281 187.5 136.5625 187.5 134.644531 C 187.5 132.726562 186.753906 130.921875 185.394531 129.566406 L 125.691406 69.914062 C 122.890625 67.113281 118.332031 67.113281 115.53125 69.914062 L 106.492188 78.941406 C 103.695312 81.742188 103.695312 86.296875 106.492188 89.09375 L 166.199219 148.75 C 167.601562 150.148438 169.4375 150.847656 171.28125 150.847656 C 173.117188 150.847656 174.960938 150.148438 176.359375 148.75 Z M 16.222656 137.332031 C 14.304688 137.332031 12.5 136.585938 11.140625 135.230469 L 2.105469 126.199219 C 0.75 124.84375 0.00390625 123.042969 0.00390625 121.125 C 0.00390625 119.207031 0.75 117.40625 2.105469 116.046875 L 98.992188 19.242188 C 101.792969 16.441406 106.355469 16.441406 109.15625 19.242188 L 118.191406 28.269531 C 120.992188 31.066406 120.992188 35.625 118.191406 38.421875 L 21.304688 135.230469 C 19.945312 136.585938 18.140625 137.332031 16.222656 137.332031 " fill-opacity="1" fill-rule="nonzero"></path></svg>
