<svg xmlns="http://www.w3.org/2000/svg" xmlns:xlink="http://www.w3.org/1999/xlink" width="40" zoomAndPan="magnify" viewBox="0 0 30 30.000001" height="40" preserveAspectRatio="xMidYMid meet" version="1.0"><defs><clipPath id="caa37c2277"><path d="M 3.21875 4.800781 L 26.445312 4.800781 L 26.445312 24.398438 L 3.21875 24.398438 Z M 3.21875 4.800781 " clip-rule="nonzero"/></clipPath></defs><g clip-path="url(#caa37c2277)"><path fill="#095aba" d="M 10.023438 24.128906 L 13.679688 20.390625 C 13.867188 20.199219 14.167969 20.199219 14.355469 20.390625 L 17.578125 23.683594 C 17.921875 24.039062 18.488281 24.039062 18.835938 23.683594 L 19.953125 22.539062 C 20.121094 22.367188 20.214844 22.140625 20.214844 21.894531 C 20.214844 21.652344 20.121094 21.425781 19.953125 21.253906 L 14.648438 15.824219 C 14.300781 15.46875 13.734375 15.46875 13.386719 15.824219 L 7.644531 21.695312 C 7.300781 22.050781 7.300781 22.628906 7.644531 22.984375 L 8.765625 24.128906 C 8.9375 24.308594 9.167969 24.394531 9.394531 24.394531 C 9.621094 24.394531 9.851562 24.308594 10.023438 24.128906 Z M 25.066406 21.582031 L 26.183594 20.4375 C 26.351562 20.265625 26.445312 20.039062 26.445312 19.792969 C 26.445312 19.550781 26.351562 19.324219 26.183594 19.152344 L 18.789062 11.585938 C 18.441406 11.230469 17.878906 11.230469 17.53125 11.585938 L 16.410156 12.730469 C 16.066406 13.085938 16.066406 13.664062 16.410156 14.015625 L 23.808594 21.582031 C 23.980469 21.761719 24.207031 21.851562 24.4375 21.851562 C 24.664062 21.851562 24.890625 21.761719 25.066406 21.582031 Z M 5.230469 20.136719 C 4.992188 20.136719 4.769531 20.039062 4.601562 19.867188 L 3.480469 18.722656 C 3.3125 18.550781 3.21875 18.324219 3.21875 18.078125 C 3.21875 17.835938 3.3125 17.609375 3.480469 17.4375 L 15.480469 5.15625 C 15.828125 4.800781 16.394531 4.800781 16.742188 5.15625 L 17.859375 6.304688 C 18.207031 6.65625 18.207031 7.234375 17.859375 7.589844 L 5.859375 19.867188 C 5.691406 20.039062 5.46875 20.136719 5.230469 20.136719 " fill-opacity="1" fill-rule="nonzero"/></g></svg>